<svg width="40" height="40" viewBox="0 0 40 40" fill="none" xmlns="http://www.w3.org/2000/svg">
<path fill-rule="evenodd" clip-rule="evenodd" d="M36.5389 17.6115C36.3015 19.2561 35.739 20.8191 34.9053 22.2565C34.9678 22.6123 34.9998 22.972 34.9998 23.3333C34.9998 24.588 34.6363 25.7888 33.9628 26.8798C33.6267 27.4244 33.5402 28.0625 33.5069 28.4841C33.4688 28.9673 33.4816 29.496 33.5161 30.0038C33.5548 30.5736 33.6248 31.1718 33.705 31.7362C33.0546 31.5465 32.3494 31.356 31.6765 31.2042C31.1169 31.0779 30.5442 30.9703 30.0254 30.9167C29.5729 30.87 28.9191 30.8338 28.3343 31.0228C27.0559 31.4361 25.6491 31.6666 24.1665 31.6666C22.4033 31.6666 20.784 31.3536 19.3645 30.81C19.0231 30.8255 18.6792 30.8333 18.3331 30.8333C16.3254 30.8333 14.3931 30.5693 12.5852 30.0813C15.2135 33.1211 19.5463 35 24.1665 35C25.9714 35 27.7037 34.7229 29.3001 34.2136C29.3029 34.2137 29.308 34.2136 29.3156 34.2135C29.3566 34.2127 29.4704 34.2104 29.6829 34.2324C30.0173 34.2669 30.4472 34.3439 30.943 34.4558C31.9303 34.6785 33.0397 35.0072 33.9044 35.2816C35.7379 35.8636 37.5145 34.2636 37.1868 32.4029C37.0458 31.6021 36.8993 30.6247 36.8418 29.778C36.8129 29.3522 36.8097 29.0028 36.8299 28.7464C36.8383 28.6401 36.8491 28.5735 36.8558 28.5381C37.7935 26.9847 38.3331 25.2162 38.3331 23.3333C38.3331 21.2107 37.6739 19.2724 36.5389 17.6115Z" fill="#565252"/>
<path fill-rule="evenodd" clip-rule="evenodd" d="M9.32822 9.49692C7.08162 11.2149 5.83315 13.4701 5.83315 15.8333C5.83315 17.0117 6.13991 18.1466 6.71545 19.202C6.93466 19.604 6.99685 20.0187 7.01909 20.2994C7.04334 20.6054 7.03125 20.92 7.00463 21.2142C6.95134 21.8031 6.82421 22.4704 6.67172 23.1277C6.49336 23.8965 6.2648 24.7165 6.03288 25.4863C6.9133 25.1663 7.87557 24.8384 8.78782 24.5722C9.5251 24.3571 10.2697 24.1705 10.9323 24.0657C11.5032 23.9755 12.3316 23.8867 13.0447 24.1335C14.6453 24.6872 16.4358 25 18.3331 25C21.9118 25 25.0899 23.8889 27.3381 22.1697C29.5847 20.4517 30.8331 18.1965 30.8331 15.8333C30.8331 13.4701 29.5847 11.2149 27.3381 9.49692C25.0899 7.77776 21.9118 6.66665 18.3331 6.66665C14.7545 6.66665 11.5763 7.77776 9.32822 9.49692ZM7.30338 6.84906C10.1826 4.64732 14.0877 3.33331 18.3331 3.33331C22.5786 3.33331 26.4837 4.64732 29.3629 6.84906C32.2436 9.05197 34.1665 12.2134 34.1665 15.8333C34.1665 19.4532 32.2436 22.6147 29.3629 24.8176C26.4837 27.0193 22.5786 28.3333 18.3331 28.3333C16.0947 28.3333 13.9566 27.9684 12.0153 27.3044C12.0133 27.3098 11.8559 27.2944 11.4529 27.3581C10.9885 27.4316 10.3957 27.5754 9.72138 27.7722C8.37894 28.1638 6.87136 28.7179 5.72304 29.1648C3.73366 29.939 1.70707 28.0284 2.37734 25.9932C2.73259 24.9145 3.15157 23.5514 3.42463 22.3744C3.56219 21.7815 3.65145 21.283 3.68486 20.9138C3.69645 20.7856 3.69945 20.6922 3.69878 20.6291C2.93164 19.1632 2.49981 17.542 2.49981 15.8333C2.49981 12.2134 4.42265 9.05197 7.30338 6.84906ZM3.69329 20.5382C3.69345 20.538 3.69426 20.5425 3.69523 20.5522C3.69362 20.5432 3.69313 20.5384 3.69329 20.5382Z" fill="#565252"/>
</svg>
