<svg width="40" height="40" viewBox="0 0 40 40" fill="none" xmlns="http://www.w3.org/2000/svg">
<path fill-rule="evenodd" clip-rule="evenodd" d="M14.1666 4.86977C12.7859 4.86977 11.6666 5.98906 11.6666 7.36977V32.6302C11.6666 34.0109 12.7859 35.1302 14.1666 35.1302H25.8333C27.214 35.1302 28.3333 34.0109 28.3333 32.6302V7.36977C28.3333 5.98906 27.214 4.86977 25.8333 4.86977H25.6943L25.2883 5.84386C25.0295 6.46488 24.4227 6.8694 23.7499 6.8694H16.2499C15.5771 6.8694 14.9703 6.46488 14.7115 5.84386L14.3056 4.86977H14.1666ZM8.33325 7.36977C8.33325 4.14811 10.9449 1.53644 14.1666 1.53644H25.8333C29.0549 1.53644 31.6666 4.14811 31.6666 7.36977V32.6302C31.6666 35.8519 29.0549 38.4635 25.8333 38.4635H14.1666C10.9449 38.4635 8.33325 35.8519 8.33325 32.6302V7.36977Z" fill="#565252"/>
</svg>
